<mxfile host="app.diagrams.net" modified="2023-05-22T21:19:30.562Z" agent="Mozilla/5.0 (Windows NT 10.0; Win64; x64) AppleWebKit/537.36 (KHTML, like Gecko) Chrome/109.0.0.0 Safari/537.36" etag="QaQnDfK30KKudtMyo583" version="21.3.2" type="device">
  <diagram name="Page-1" id="X_YfTzH6AGU0rwHe_637">
    <mxGraphModel dx="989" dy="504" grid="1" gridSize="10" guides="1" tooltips="1" connect="1" arrows="1" fold="1" page="1" pageScale="1" pageWidth="850" pageHeight="1100" math="0" shadow="0">
      <root>
        <mxCell id="0" />
        <mxCell id="1" parent="0" />
        <mxCell id="3gSUNW4Fd5VfJY75vHMI-1" value="external" style="rounded=1;whiteSpace=wrap;html=1;glass=0;shadow=0;fillColor=#ffa566ff;strokeColor=none;fontFamily=Varela Round;fontSource=https%3A%2F%2Ffonts.googleapis.com%2Fcss%3Ffamily%3DVarela%2BRound;fontSize=16;" parent="1" vertex="1">
          <mxGeometry x="80" y="30" width="208.97" height="70" as="geometry" />
        </mxCell>
        <mxCell id="3gSUNW4Fd5VfJY75vHMI-2" value="three" style="rounded=1;whiteSpace=wrap;html=1;glass=0;shadow=0;fillColor=#80acd8ff;strokeColor=none;fontFamily=Varela Round;fontSource=https%3A%2F%2Ffonts.googleapis.com%2Fcss%3Ffamily%3DVarela%2BRound;fontSize=16;" parent="1" vertex="1">
          <mxGeometry x="80" y="169.31" width="208.97" height="70.69" as="geometry" />
        </mxCell>
        <mxCell id="3gSUNW4Fd5VfJY75vHMI-8" style="edgeStyle=orthogonalEdgeStyle;rounded=0;orthogonalLoop=1;jettySize=auto;html=1;endArrow=open;endFill=0;fontFamily=Varela Round;fontSource=https%3A%2F%2Ffonts.googleapis.com%2Fcss%3Ffamily%3DVarela%2BRound;" parent="1" source="3gSUNW4Fd5VfJY75vHMI-1" target="3gSUNW4Fd5VfJY75vHMI-2" edge="1">
          <mxGeometry relative="1" as="geometry" />
        </mxCell>
        <mxCell id="3gSUNW4Fd5VfJY75vHMI-3" value="planet" style="rounded=1;whiteSpace=wrap;html=1;glass=0;shadow=0;fillColor=#fcf471ff;strokeColor=none;fontFamily=Varela Round;fontSource=https%3A%2F%2Ffonts.googleapis.com%2Fcss%3Ffamily%3DVarela%2BRound;fontSize=16;" parent="1" vertex="1">
          <mxGeometry x="80" y="308.62" width="208.97" height="71.38" as="geometry" />
        </mxCell>
        <mxCell id="3gSUNW4Fd5VfJY75vHMI-5" style="edgeStyle=orthogonalEdgeStyle;rounded=0;orthogonalLoop=1;jettySize=auto;html=1;exitX=0.5;exitY=1;exitDx=0;exitDy=0;endArrow=open;endFill=0;fontFamily=Varela Round;fontSource=https%3A%2F%2Ffonts.googleapis.com%2Fcss%3Ffamily%3DVarela%2BRound;" parent="1" source="3gSUNW4Fd5VfJY75vHMI-2" target="3gSUNW4Fd5VfJY75vHMI-3" edge="1">
          <mxGeometry relative="1" as="geometry" />
        </mxCell>
        <mxCell id="3gSUNW4Fd5VfJY75vHMI-4" value="web" style="rounded=1;whiteSpace=wrap;html=1;glass=0;shadow=0;fillColor=#a1d97dff;strokeColor=none;fontFamily=Varela Round;fontSource=https%3A%2F%2Ffonts.googleapis.com%2Fcss%3Ffamily%3DVarela%2BRound;fontSize=16;" parent="1" vertex="1">
          <mxGeometry x="80" y="447.93" width="208.97" height="72.07" as="geometry" />
        </mxCell>
        <mxCell id="3gSUNW4Fd5VfJY75vHMI-6" style="edgeStyle=orthogonalEdgeStyle;rounded=0;orthogonalLoop=1;jettySize=auto;html=1;endArrow=open;endFill=0;fontFamily=Varela Round;fontSource=https%3A%2F%2Ffonts.googleapis.com%2Fcss%3Ffamily%3DVarela%2BRound;" parent="1" source="3gSUNW4Fd5VfJY75vHMI-3" target="3gSUNW4Fd5VfJY75vHMI-4" edge="1">
          <mxGeometry relative="1" as="geometry" />
        </mxCell>
        <mxCell id="3gSUNW4Fd5VfJY75vHMI-10" value="Code copied over from external sources used by the layers below. For example, SpinControls." style="text;html=1;strokeColor=none;fillColor=none;align=left;verticalAlign=top;whiteSpace=wrap;rounded=0;fontSize=9;fontFamily=Varela Round;fontSource=https%3A%2F%2Ffonts.googleapis.com%2Fcss%3Ffamily%3DVarela%2BRound;" parent="1" vertex="1">
          <mxGeometry x="310" y="44.440000000000005" width="200.26" height="41.12" as="geometry" />
        </mxCell>
        <mxCell id="3gSUNW4Fd5VfJY75vHMI-13" value="Services and managers containing code related to different 3D features." style="text;html=1;strokeColor=none;fillColor=none;align=left;verticalAlign=top;whiteSpace=wrap;rounded=0;fontSize=9;fontFamily=Varela Round;fontSource=https%3A%2F%2Ffonts.googleapis.com%2Fcss%3Ffamily%3DVarela%2BRound;" parent="1" vertex="1">
          <mxGeometry x="310" y="188.53" width="200.26" height="32.25" as="geometry" />
        </mxCell>
        <mxCell id="3gSUNW4Fd5VfJY75vHMI-16" value="Objects and services related to the planet. This includes all objects that are a part of the planet like the globe, house, hut etc and also all continents that use these objects." style="text;html=1;strokeColor=none;fillColor=none;align=left;verticalAlign=top;whiteSpace=wrap;rounded=0;fontSize=9;fontFamily=Varela Round;fontSource=https%3A%2F%2Ffonts.googleapis.com%2Fcss%3Ffamily%3DVarela%2BRound;" parent="1" vertex="1">
          <mxGeometry x="310" y="317.26" width="200.26" height="54.1" as="geometry" />
        </mxCell>
        <mxCell id="3gSUNW4Fd5VfJY75vHMI-17" value="UI components and services. It includes all the components, markup and styles. It visualizes the planet and adds content on top of it." style="text;html=1;strokeColor=none;fillColor=none;align=left;verticalAlign=top;whiteSpace=wrap;rounded=0;fontSize=9;fontFamily=Varela Round;fontSource=https%3A%2F%2Ffonts.googleapis.com%2Fcss%3Ffamily%3DVarela%2BRound;" parent="1" vertex="1">
          <mxGeometry x="310" y="461.74" width="200.26" height="44.45" as="geometry" />
        </mxCell>
      </root>
    </mxGraphModel>
  </diagram>
</mxfile>
